HIERARCHY
ROOT Hips
{
	OFFSET 0.000000  0.463670  0.080341
	CHANNELS 6 Xposition Yposition Zposition Zrotation Yrotation Xrotation 
	JOINT LHipJoint
	{
		OFFSET 0 0 0
		CHANNELS 3 Zrotation Yrotation Xrotation
		JOINT LeftUpLeg
		{
			OFFSET 0.949434 -0.248378 0.086503
			CHANNELS 3 Zrotation Yrotation Xrotation
			JOINT LeftLeg
			{
				OFFSET -0.076513 -3.879421 -0.177038
				CHANNELS 3 Zrotation Yrotation Xrotation
				JOINT LeftFoot
				{
					OFFSET -0.188964 -3.680973 -0.122632
					CHANNELS 3 Zrotation Yrotation Xrotation
					JOINT LeftToeBase
					{
						OFFSET 0.055451 -0.524480 1.120382
						CHANNELS 3 Zrotation Yrotation Xrotation
						End Site
						{
							OFFSET 0.007944 -0.006006 0.139660
						}
					}
				}
			}
		}
	}
	JOINT RHipJoint
	{
		OFFSET 0 0 0
		CHANNELS 3 Zrotation Yrotation Xrotation
		JOINT RightUpLeg
		{
			OFFSET -0.949434 -0.248378 0.086503
			CHANNELS 3 Zrotation Yrotation Xrotation
			JOINT RightLeg
			{
				OFFSET 0.076513 -3.879421 -0.177038
				CHANNELS 3 Zrotation Yrotation Xrotation
				JOINT RightFoot
				{
					OFFSET 0.188964 -3.680973 -0.122632
					CHANNELS 3 Zrotation Yrotation Xrotation
					JOINT RightToeBase
					{
						OFFSET -0.055451 -0.524480 1.120382
						CHANNELS 3 Zrotation Yrotation Xrotation
						End Site
						{
							OFFSET -0.007944 -0.006006 0.139660
						}
					}
				}
			}
		}
	}
	JOINT LowerBack
	{
		OFFSET 0 0 0
		CHANNELS 3 Zrotation Yrotation Xrotation
		JOINT Spine
		{
			OFFSET 0.000000 0.677144 0.028277
			CHANNELS 3 Zrotation Yrotation Xrotation
			JOINT Spine1
			{
				OFFSET 0.000000 2.156116 -0.508617
				CHANNELS 3 Zrotation Yrotation Xrotation
				JOINT Neck
				{
					OFFSET 0 0 0
					CHANNELS 3 Zrotation Yrotation Xrotation
					JOINT Neck1
					{
						OFFSET 0.000000 1.781871 0.216275
						CHANNELS 3 Zrotation Yrotation Xrotation
						JOINT Head
						{
							OFFSET 0.000000 1.015906 -0.026879
							CHANNELS 3 Zrotation Yrotation Xrotation
							End Site
							{
								OFFSET 0.000000 0.339197 0.983632
							}
						}
					}
				}
				JOINT LeftShoulder
				{
					OFFSET 0 0 0
					CHANNELS 3 Zrotation Yrotation Xrotation
					JOINT LeftArm
					{
						OFFSET 1.565866 1.184736 0.289545
						CHANNELS 3 Zrotation Yrotation Xrotation
						JOINT LeftForeArm
						{
							OFFSET 1.930940 -0.176441 -0.109244
							CHANNELS 3 Zrotation Yrotation Xrotation
							JOINT LeftHand
							{
								OFFSET 2.263412 -0.058986 0.122483
								CHANNELS 3 Zrotation Yrotation Xrotation
								JOINT LeftFingerBase
								{
									OFFSET 0 0 0
									CHANNELS 3 Zrotation Yrotation Xrotation
									JOINT LeftHandIndex1
									{
										OFFSET 0.944218 0.017559 0.358417
										CHANNELS 3 Zrotation Yrotation Xrotation
										End Site
										{
											OFFSET 0.237801 -0.022714 0.035813
										}
									}
								}
								JOINT LThumb
								{
									OFFSET 0 0 0
									CHANNELS 3 Zrotation Yrotation Xrotation
									End Site
									{
										OFFSET 0.234930 -0.092931 0.244282
									}
								}
							}
						}
					}
				}
				JOINT RightShoulder
				{
					OFFSET 0 0 0
					CHANNELS 3 Zrotation Yrotation Xrotation
					JOINT RightArm
					{
						OFFSET -1.565866 1.184736 0.289545
						CHANNELS 3 Zrotation Yrotation Xrotation
						JOINT RightForeArm
						{
							OFFSET -1.930940 -0.176441 -0.109244
							CHANNELS 3 Zrotation Yrotation Xrotation
							JOINT RightHand
							{
								OFFSET -2.263412 -0.058986 0.122483
								CHANNELS 3 Zrotation Yrotation Xrotation
								JOINT RightFingerBase
								{
									OFFSET 0 0 0
									CHANNELS 3 Zrotation Yrotation Xrotation
									JOINT RightHandIndex1
									{
										OFFSET -0.944218 0.017559 0.358417
										CHANNELS 3 Zrotation Yrotation Xrotation
										End Site
										{
											OFFSET -0.237801 -0.022714 0.035813
										}
									}
								}
								JOINT RThumb
								{
									OFFSET 0 0 0
									CHANNELS 3 Zrotation Yrotation Xrotation
									End Site
									{
										OFFSET -0.234930 -0.092931 0.244282
									}
								}
							}
						}
					}
				}
			}
		}
	}
}
MOTION
Frames: 5
Frame Time: .0083333
-11.918527 7.895632 0.515579 0.000000 0.000000 0.000000 0.000000 0.000000 0.000000 0.000000 0.000000 0.000000 0.000000 0.000000 0.000000 0.000000 0.000000 0.000000 0.000000 0.000000 0.000000 0.000000 0.000000 0.000000 0.000000 0.000000 0.000000 0.000000 0.000000 0.000000 0.000000 0.000000 0.000000 0.000000 0.000000 0.000000 0.000000 0.000000 0.000000 0.000000 0.000000 0.000000 0.000000 0.000000 0.000000 0.000000 0.000000 0.000000 0.000000 0.000000 0.000000 0.000000 0.000000 0.000000 0.000000 0.000000 0.000000 0.000000 0.000000 0.000000 0.000000 0.000000 0.000000 0.000000 0.000000 0.000000 0.000000 0.000000 0.000000 0.000000 0.000000 0.000000 0.000000 0.000000 0.000000 0.000000 0.000000 0.000000 0.000000 0.000000 0.000000 0.000000 0.000000 0.000000 0.000000 0.000000 0.000000 0.000000 0.000000 0.000000 0.000000 0.000000 0.000000 0.000000 0.000000 0.000000
-11.918527 7.895632 0.515579 -15.862400 85.185699 -18.632799 0.000000 0.000000 0.000000 -0.754499 -20.893900 3.032100 2.556500 9.940000 28.782700 1.505200 17.186199 -34.750000 0.153600 -2.525000 -6.959000 0.000000 0.000000 0.000000 4.343700 19.384701 3.033000 -2.122600 -9.117000 26.162001 -2.137800 -18.918100 -39.551498 -1.026700 6.445600 -18.082800 -0.114100 2.698600 4.874600 -1.248800 3.614600 1.952000 -1.407700 1.827200 -0.648800 11.286600 5.414100 12.351600 -4.964000 7.293500 -6.753500 -2.933500 3.937200 -5.504100 0.000000 0.000000 0.000000 -78.605499 1.492900 22.971100 14.921900 -24.037201 -3.194100 -0.000000 -0.000000 3.651600 17.648600 10.018500 3.168000 -7.125000 0.000000 -0.000000 -8.231900 40.348000 0.951500 0.000000 0.000000 0.000000 80.783302 -6.430100 29.090900 -18.035500 28.202499 -4.566000 0.000000 -0.000000 -15.667300 -16.272499 2.061100 -0.601500 7.125000 -0.000000 -0.000000 7.937600 -27.803600 3.348500
-11.918105 7.897368 0.514684 -17.054501 85.177498 -19.700600 0.000000 0.000000 0.000000 -0.609301 -20.964300 2.893400 2.558500 9.943500 28.793800 1.495200 17.208200 -34.714500 0.157300 -2.555600 -7.043900 0.000000 0.000000 0.000000 4.390100 19.405100 2.942000 -2.108600 -9.088700 26.073200 -2.134400 -18.869600 -39.493801 -1.003600 6.374900 -17.875999 0.022500 2.686000 4.736300 -1.239100 3.603700 1.931600 -1.466400 1.821900 -0.585400 11.226900 5.414300 12.300000 -4.834700 7.279300 -6.661100 -2.882100 3.936500 -5.474100 0.000000 -0.000000 0.000000 -78.554100 1.522700 22.799299 14.828600 -23.906799 -3.156200 -0.000000 -0.000000 3.709000 17.539499 9.653400 3.033800 -7.125000 0.000000 -0.000000 -8.262700 39.961601 1.034300 0.000000 -0.000000 0.000000 80.817703 -6.395100 29.077299 -17.999701 28.156799 -4.549100 0.000000 -0.000000 -15.652300 -16.285400 2.006800 -0.586100 7.125000 -0.000000 -0.000000 7.931500 -27.859699 3.335200
-11.917157 7.899052 0.514053 -15.635200 85.219498 -18.170000 0.000000 0.000000 0.000000 -0.748400 -21.090401 2.842400 2.549900 9.928000 28.743900 1.469600 17.351299 -34.704800 0.159000 -2.569000 -7.080900 0.000000 0.000000 0.000000 4.194901 19.435301 2.838200 -2.103200 -9.077800 26.039000 -2.179100 -18.730700 -39.586498 -0.984900 6.316800 -17.706400 -0.081400 2.696100 4.612600 -1.282000 3.612400 1.903100 -1.447100 1.825800 -0.549100 11.202100 5.394800 12.211100 -4.766800 7.242200 -6.515200 -2.856100 3.923700 -5.419700 -0.000000 -0.000000 0.000000 -78.532303 1.606500 22.581200 14.763400 -23.815399 -3.129800 -0.000000 -0.000000 3.754700 17.415300 9.213600 2.875200 -7.125000 0.000000 -0.000000 -8.294800 39.497101 1.134000 -0.000000 -0.000000 0.000000 80.838699 -6.415100 29.027500 -17.971800 28.121099 -4.536000 0.000000 -0.000000 -15.660800 -16.253901 2.010700 -0.586100 7.125000 -0.000000 -0.000000 7.955400 -27.855700 3.346200
-11.916421 7.901737 0.513579 -15.161000 85.232002 -17.525999 0.000000 0.000000 0.000000 -0.769699 -21.229700 2.726000 2.543600 9.916700 28.707300 1.453500 17.451700 -34.709099 0.158700 -2.567100 -7.075800 0.000000 0.000000 0.000000 4.082100 19.495701 2.689300 -2.093100 -9.057400 25.975100 -2.185900 -18.738501 -39.625401 -0.980100 6.301800 -17.662701 -0.203300 2.635100 4.439500 -1.282500 3.529000 1.958500 -1.364900 1.784400 -0.405200 11.270300 5.496100 11.755500 -4.832500 7.330600 -6.334700 -2.866900 3.959800 -5.272900 0.000000 -0.000000 0.000000 -78.581299 1.481200 22.134300 14.723400 -23.759300 -3.113600 -0.000000 -0.000000 3.927400 17.462400 9.203600 2.880400 -7.125000 0.000000 -0.000000 -8.252700 39.490398 1.129500 0.000000 -0.000000 0.000000 80.832001 -6.147000 29.164499 -17.893900 28.021099 -4.499300 0.000000 -0.000000 -15.621800 -16.194000 2.017900 -0.585900 7.125000 -0.000000 -0.000000 8.000700 -27.848600 3.367000
